<svg xmlns="http://www.w3.org/2000/svg" version="1.1" xmlns:xlink="http://www.w3.org/1999/xlink" xmlns:svgjs="http://svgjs.dev/svgjs" width="200" height="70" viewBox="0 0 1000 1000"><rect width="1000" height="1000" fill="#282634"></rect><g transform="matrix(0.7,0,0,0.7,149.57575757575756,448.25384805659445)"><svg viewBox="0 0 396 59" data-background-color="#282634" preserveAspectRatio="xMidYMid meet" height="148" width="1000" xmlns="http://www.w3.org/2000/svg" xmlns:xlink="http://www.w3.org/1999/xlink"><g id="tight-bounds" transform="matrix(1,0,0,1,0.2400000000000091,-0.030666364276783042)"><svg viewBox="0 0 395.52 59.061332728553545" height="59.061332728553545" width="395.52"><g><svg viewBox="0 0 479.3216833934989 71.5750845138396" height="59.061332728553545" width="395.52"><g transform="matrix(1,0,0,1,0,9.892070290986517)"><svg viewBox="0 0 395.52 51.790943931866565" height="51.790943931866565" width="395.52"><g><svg viewBox="0 0 395.52 51.790943931866565" height="51.790943931866565" width="395.52"><g><svg viewBox="0 0 395.52 51.790943931866565" height="51.790943931866565" width="395.52"><g transform="matrix(1,0,0,1,0,0)"><svg width="395.52" viewBox="1.5 -35.900001525878906 281.7799987792969 36.900001525878906" height="51.790943931866565" data-palette-color="#ff4057"><path d="M1.5-2.4L1.5-2.4 2.2-8.9 3.9-8.8Q3.9-6.05 7.18-4.38 10.45-2.7 14.63-2.7 18.8-2.7 20.9-3.98 23-5.25 23-7.2L23-7.2Q23-10.5 19.5-13.1L19.5-13.1Q18.05-14.15 16.45-14.95L16.45-14.95Q12.8-16.85 11.88-17.38 10.95-17.9 9.8-18.45 8.65-19 7.68-19.63 6.7-20.25 5.6-21.15L5.6-21.15Q3.1-23.15 3.1-25.63 3.1-28.1 3.98-29.95 4.85-31.8 6.18-32.85 7.5-33.9 9.3-34.6L9.3-34.6Q12.35-35.7 16.13-35.7 19.9-35.7 23.4-33.8L23.4-33.8 22.8-28 21.1-28Q21.1-32.7 13.2-32.7L13.2-32.7Q9.55-32.7 7.73-31.55 5.9-30.4 5.9-28.4L5.9-28.4Q5.9-25.2 16.3-20.7L16.3-20.7Q23.15-17.75 25.05-14.15L25.05-14.15Q26-12.35 26-10.2L26-10.2Q26-5 21.83-2.15 17.65 0.7 11.75 0.7 5.85 0.7 1.5-2.4ZM44.6 1L44.6 1Q38.05 1 33.67-4.05 29.3-9.1 29.3-15.7L29.3-15.7Q29.3-19.8 31.1-23.6 32.9-27.4 35.72-30.05 38.55-32.7 41.97-34.3 45.4-35.9 48.6-35.9L48.6-35.9Q55.1-35.9 59.5-30.85 63.9-25.8 63.9-19.2L63.9-19.2Q63.9-14.3 61.25-9.63 58.6-4.95 54.07-1.98 49.55 1 44.6 1ZM47.7-2.8L47.7-2.8Q53.15-2.8 56.87-6.8 60.6-10.8 60.6-16.7 60.6-22.6 56.27-27.3 51.95-32 45.8-32L45.8-32Q40.55-32 36.57-28.23 32.6-24.45 32.6-19.2L32.6-19.2Q32.6-12.4 36.77-7.6 40.95-2.8 47.7-2.8ZM67.7-35L75.4-35 84.9-35.5Q89.3-35.5 92.1-33.65 94.9-31.8 94.9-28.6L94.9-28.6Q94.9-24.15 92.5-21.35 90.1-18.55 86.6-17.1L86.6-17.1 94.7-4.9Q95.2-4.1 96.62-2.75 98.05-1.4 99.2-1.4L99.2-1.4 100.09-1.4 100.09 0 92.7 0Q92.85 0 91.75-1.5 90.65-3 90.5-3.3L90.5-3.3 82.2-16.1Q81.7-16 80.2-16 78.7-16 77.8-16.1L77.8-16.1 77.4-18.1Q78.1-18 80.4-18 82.7-18 85-18.6 87.3-19.2 89.05-20.88 90.8-22.55 90.8-25.2L90.8-25.2Q90.8-32.6 81.3-32.6L81.3-32.6 76.1-32.4 76.1-3.7Q76.1-2.95 76.2-2.55 76.3-2.15 76.85-1.78 77.4-1.4 78.5-1.4L78.5-1.4 80.4-1.4 80.4 0 67.7 0 67.7-1.4 69.3-1.4Q70.4-1.4 70.95-1.78 71.5-2.15 71.6-2.55 71.7-2.95 71.7-3.7L71.7-3.7 71.7-31.3Q71.7-32.45 71.22-32.98 70.75-33.5 69.3-33.5L69.3-33.5 67.7-33.5 67.7-35ZM115.69-1.4L115.69 0 102.99 0 102.99-1.4 104.69-1.4Q106.19-1.4 106.64-2 107.09-2.6 107.09-3.7L107.09-3.7 107.09-31.3Q107.09-32.4 106.64-33 106.19-33.6 104.69-33.6L104.69-33.6 102.99-33.6 102.99-35 115.69-35 115.69-33.6 113.79-33.6Q112.29-33.6 111.84-33 111.39-32.4 111.39-31.3L111.39-31.3 111.39-3.7Q111.39-2.6 111.84-2 112.29-1.4 113.79-1.4L113.79-1.4 115.69-1.4ZM148.79 0.8L148.79 0.8 126.69-28.8 126.69-3.7Q126.69-1.5 129.79-1.5L129.79-1.5 131.69-1.5 131.69 0 119.69 0 119.69-1.5 121.29-1.5Q124.39-1.5 124.39-3.7L124.39-3.7 124.39-31.3Q124.39-33.5 121.29-33.5L121.29-33.5 119.69-33.5 119.69-35 127.59-35 148.19-7.3 148.19-31.3Q148.19-33.5 145.19-33.5L145.19-33.5 143.49-33.5 143.49-35 155.49-35 155.49-33.5 153.59-33.5Q150.49-33.5 150.49-31.3L150.49-31.3 150.49-0.2Q149.94-0.2 149.31 0.28 148.69 0.75 148.79 0.8ZM207.59-2.4L204.99 0.7 204.19 1 195.89-22.9 188.79-2.4 186.19 0.7 185.39 1 174.19-31.3Q173.74-32.4 173.16-32.95 172.59-33.5 171.39-33.5L171.39-33.5 169.69-33.5 169.69-35 182.09-35 182.09-33.5 180.89-33.5Q178.69-33.5 178.69-32.2L178.69-32.2Q178.69-31.8 179.09-30.7L179.09-30.7 187.79-5.4 194.89-25.9 192.99-31.3Q192.39-32.9 191.94-33.2 191.49-33.5 190.69-33.5L190.69-33.5 190.29-33.5 190.29-35 201.49-35 201.49-33.5 199.69-33.5Q197.39-33.5 197.39-32.3L197.39-32.3Q197.39-31.7 197.79-30.7L197.79-30.7 206.59-5.4 215.19-30.1Q215.79-32.1 215.79-32.63 215.79-33.15 215.11-33.33 214.44-33.5 212.39-33.5L212.39-33.5 211.69-33.5 211.69-35 221.49-35 221.49-33.5 220.59-33.5Q218.99-33.5 218.49-33.05 217.99-32.6 217.49-31.1L217.49-31.1 207.59-2.4ZM252.58-6.9L250.88 0 224.08 0 224.08-1.4 225.78-1.4Q227.23-1.4 227.71-1.95 228.18-2.5 228.18-3.7L228.18-3.7 228.18-31.3Q228.18-32.3 227.56-32.95 226.93-33.6 225.78-33.6L225.78-33.6 224.08-33.6 224.08-35 250.48-35 250.88-28.1 249.48-27.8Q249.48-29.6 248.03-31.25 246.58-32.9 243.98-32.9L243.98-32.9 234.88-32.9Q233.38-32.9 232.93-32.33 232.48-31.75 232.48-30.7L232.48-30.7 232.48-19.3 242.48-19.3Q243.23-19.3 243.63-19.38 244.03-19.45 244.36-19.9 244.68-20.35 244.68-21.2L244.68-21.2 244.68-23.5 246.18-23.5 246.18-13.1 244.68-13.1 244.68-15.2Q244.68-16.45 244.13-16.82 243.58-17.2 242.48-17.2L242.48-17.2 232.48-17.2 232.48-4.3Q232.48-3.25 232.93-2.68 233.38-2.1 234.88-2.1L234.88-2.1 244.38-2.1Q247.03-2.1 249.06-3.8 251.08-5.5 251.18-7.1L251.18-7.1 252.58-6.9ZM256.08-35L262.78-35 271.38-35.5Q278.18-35.5 280.03-32.2L280.03-32.2Q280.78-30.85 280.78-28.9L280.78-28.9Q280.78-23.1 275.98-19.7L275.98-19.7Q281.08-18.75 282.58-15.7L282.58-15.7Q283.28-14.2 283.28-12.1L283.28-12.1Q283.28-7.05 279.06-3.53 274.83 0 269.08 0L269.08 0 256.08 0 256.08-1.5 257.78-1.5Q259.28-1.5 259.68-2.05 260.08-2.6 260.08-3.7L260.08-3.7 260.08-31.3Q260.08-32.5 259.66-33 259.23-33.5 257.78-33.5L257.78-33.5 256.08-33.5 256.08-35ZM268.18-32.8L268.18-32.8Q266.18-32.8 264.48-32.5L264.48-32.5 264.48-19.4 270.58-19.4Q273.33-19.4 275.26-21.43 277.18-23.45 277.18-25.8L277.18-25.8Q277.18-29.2 274.48-31 271.78-32.8 268.18-32.8ZM269.08-17.3L269.08-17.3 264.48-17.3 264.48-3.1Q267.53-2.2 270.18-2.2L270.18-2.2Q274.18-2.2 276.68-4.17 279.18-6.15 279.18-9.5L279.18-9.5Q279.18-13.95 275.98-15.7L275.98-15.7Q273.13-17.3 269.08-17.3Z" opacity="1" transform="matrix(1,0,0,1,0,0)" fill="#ff4057" class="undefined-text-0" data-fill-palette-color="primary" id="text-0"></path></svg></g></svg></g></svg></g></svg></g><g transform="matrix(1,0,0,1,407.7465988796593,0)"><svg viewBox="0 0 71.5750845138396 71.5750845138396" height="71.5750845138396" width="71.5750845138396"><g data-palette-color="#ebebe6"><rect width="19.563856433782824" height="71.5750845138396" fill="#ebebe6" stroke="transparent" data-fill-palette-color="accent" x="0" fill-opacity="1"></rect><rect width="19.563856433782824" height="71.5750845138396" fill="#ebebe6" stroke="transparent" data-fill-palette-color="accent" x="23.8583615046132" fill-opacity="0.75"></rect><rect width="19.563856433782824" height="71.5750845138396" fill="#ebebe6" stroke="transparent" data-fill-palette-color="accent" x="47.7167230092264" fill-opacity="0.5"></rect></g></svg></g></svg></g><defs></defs></svg><rect width="395.52" height="59.061332728553545" fill="none" stroke="none" visibility="hidden"></rect></g></svg></g></svg>